# xmcd
#
# Track frame offsets:
# 150
# 16838
# 41168
# 63792
# 86869
# 104538
# 128489
# 150605
# 167640
# 188444
#
# Disc length: 2772 seconds
#
#
# Revision: 1
# Processed by: cddbd v1.5.1PL0 Copyright (c) Steve Scherf et al.
# Submitted via: FreeRIP 2.942 
#
DISCID=730ad20a
DTITLE=Tadeusz Nalepa - Sumienie
DYEAR=2002
DGENRE=Blues
TTITLE0=Cma
TTITLE1=Swiat  nieprzenikniony
TTITLE2=Cos waznego na dobranoc
TTITLE3=Wlasne miejsce
TTITLE4=Sumienie sprzedam
TTITLE5=Moj Nowy Jork
TTITLE6=Wiara nosi gory
TTITLE7=To niemozliwe
TTITLE8=Tego Ci zycze
TTITLE9=Tydzen ma 7 dni
EXTD=
EXTT0=
EXTT1=
EXTT2=
EXTT3=
EXTT4=
EXTT5=
EXTT6=
EXTT7=
EXTT8=
EXTT9=
PLAYORDER=
